HIERARCHY
ROOT hips
{
	OFFSET 0.000000 104.274902 0.000000
	CHANNELS 6 Xposition Yposition Zposition Xrotation Yrotation Zrotation
	JOINT spine
	{
		OFFSET 0.000000 10.181549 0.131524
		CHANNELS 6 Xposition Yposition Zposition Xrotation Yrotation Zrotation
		JOINT chest
		{
			OFFSET 0.000000 9.893990 -1.470706
			CHANNELS 3 Xrotation Yrotation Zrotation
			JOINT upperChest
			{
				OFFSET 0.000000 9.220787 -1.370637
				CHANNELS 3 Xrotation Yrotation Zrotation
				JOINT neck
				{
					OFFSET 0.000000 16.740372 -2.049022
					CHANNELS 6 Xposition Yposition Zposition Xrotation Yrotation Zrotation
					JOINT head
					{
						OFFSET 0.000000 9.617859 1.684976
						CHANNELS 6 Xposition Yposition Zposition Xrotation Yrotation Zrotation
						JOINT headEnd
						{
							OFFSET 0.000000 22.037384 7.501072
							CHANNELS 6 Xposition Yposition Zposition Xrotation Yrotation Zrotation
							End Site
							{
								OFFSET 0.000000 23.106567 -2.828246
							}
						}
					}
				}
				JOINT rightShoulder
				{
					OFFSET -4.570000 11.014877 -2.160840
					CHANNELS 6 Xposition Yposition Zposition Xrotation Yrotation Zrotation
					JOINT rightUpperArm
					{
						OFFSET -10.592867 -0.524796 -2.232105
						CHANNELS 3 Xrotation Yrotation Zrotation
						JOINT rightLowerArm
						{
							OFFSET -27.841497 0.000000 -0.000002
							CHANNELS 3 Xrotation Yrotation Zrotation
							JOINT rightHand
							{
								OFFSET -28.328812 0.000000 -0.000001
								CHANNELS 3 Xrotation Yrotation Zrotation
								JOINT rightThumbProximal
								{
									OFFSET -2.464798 -1.573990 2.681911
									CHANNELS 6 Xposition Yposition Zposition Xrotation Yrotation Zrotation
									JOINT rightThumbIntermediate
									{
										OFFSET -3.244781 -1.873383 1.873376
										CHANNELS 3 Xrotation Yrotation Zrotation
										JOINT rightThumbDistal
										{
											OFFSET -2.646263 -1.527817 1.527818
											CHANNELS 6 Xposition Yposition Zposition Xrotation Yrotation Zrotation
											JOINT rightHandThumb4
											{
												OFFSET -1.994591 -1.151581 1.151575
												CHANNELS 6 Xposition Yposition Zposition Xrotation Yrotation Zrotation
												End Site
												{
													OFFSET -1.860176 -1.142715 1.365483
												}
											}
										}
									}
								}
								JOINT rightIndexProximal
								{
									OFFSET -9.108299 -0.517883 2.259803
									CHANNELS 6 Xposition Yposition Zposition Xrotation Yrotation Zrotation
									JOINT rightIndexIntermediate
									{
										OFFSET -3.699997 0.000000 0.000000
										CHANNELS 3 Xrotation Yrotation Zrotation
										JOINT rightIndexDistal
										{
											OFFSET -2.850006 0.000000 0.000000
											CHANNELS 3 Xrotation Yrotation Zrotation
											JOINT rightHandIndex4
											{
												OFFSET -2.772194 0.000000 0.000000
												CHANNELS 3 Xrotation Yrotation Zrotation
												End Site
												{
													OFFSET -2.772202 0.000000 -0.000484
												}
											}
										}
									}
								}
								JOINT rightMiddleProximal
								{
									OFFSET -9.532501 0.000000 -0.000000
									CHANNELS 6 Xposition Yposition Zposition Xrotation Yrotation Zrotation
									JOINT rightMiddleIntermediate
									{
										OFFSET -3.699997 0.000000 0.000000
										CHANNELS 3 Xrotation Yrotation Zrotation
										JOINT rightMiddleDistal
										{
											OFFSET -2.949997 0.000000 0.000000
											CHANNELS 3 Xrotation Yrotation Zrotation
											JOINT rightHandMiddle4
											{
												OFFSET -2.946594 0.000000 0.000000
												CHANNELS 3 Xrotation Yrotation Zrotation
												End Site
												{
													OFFSET -2.946602 0.000000 -0.000982
												}
											}
										}
									}
								}
								JOINT rightRingProximal
								{
									OFFSET -9.103600 -0.043106 -1.865100
									CHANNELS 6 Xposition Yposition Zposition Xrotation Yrotation Zrotation
									JOINT rightRingIntermediate
									{
										OFFSET -3.379303 0.000000 0.000000
										CHANNELS 3 Xrotation Yrotation Zrotation
										JOINT rightRingDistal
										{
											OFFSET -2.889694 0.000000 0.000000
											CHANNELS 3 Xrotation Yrotation Zrotation
											JOINT rightHandRing4
											{
												OFFSET -2.638802 0.000000 0.000000
												CHANNELS 3 Xrotation Yrotation Zrotation
												End Site
												{
													OFFSET -2.638802 0.000000 0.004218
												}
											}
										}
									}
								}
								JOINT rightLittleProximal
								{
									OFFSET -8.076698 -0.486725 -3.806299
									CHANNELS 6 Xposition Yposition Zposition Xrotation Yrotation Zrotation
									JOINT rightLittleIntermediate
									{
										OFFSET -3.600006 0.000000 0.000000
										CHANNELS 3 Xrotation Yrotation Zrotation
										JOINT rightLittleDistal
										{
											OFFSET -2.099998 0.000000 0.000000
											CHANNELS 3 Xrotation Yrotation Zrotation
											JOINT rightHandPinky4
											{
												OFFSET -2.115791 0.000000 0.000000
												CHANNELS 3 Xrotation Yrotation Zrotation
												End Site
												{
													OFFSET -2.115799 0.000000 0.000174
												}
											}
										}
									}
								}
							}
						}
					}
				}
				JOINT leftShoulder
				{
					OFFSET 4.570400 11.014679 -2.160816
					CHANNELS 6 Xposition Yposition Zposition Xrotation Yrotation Zrotation
					JOINT leftUpperArm
					{
						OFFSET 10.592373 -0.524597 -2.232116
						CHANNELS 3 Xrotation Yrotation Zrotation
						JOINT leftLowerArm
						{
							OFFSET 27.841488 0.000000 0.000001
							CHANNELS 3 Xrotation Yrotation Zrotation
							JOINT leftHand
							{
								OFFSET 28.328808 0.000000 -0.000000
								CHANNELS 3 Xrotation Yrotation Zrotation
								JOINT leftThumbProximal
								{
									OFFSET 2.466103 -1.576202 2.681698
									CHANNELS 6 Xposition Yposition Zposition Xrotation Yrotation Zrotation
									JOINT leftThumbIntermediate
									{
										OFFSET 3.243317 -1.872528 1.872530
										CHANNELS 3 Xrotation Yrotation Zrotation
										JOINT leftThumbDistal
										{
											OFFSET 2.647881 -1.528763 1.528754
											CHANNELS 6 Xposition Yposition Zposition Xrotation Yrotation Zrotation
											JOINT leftHandThumb4
											{
												OFFSET 1.998924 -1.154083 1.154080
												CHANNELS 6 Xposition Yposition Zposition Xrotation Yrotation Zrotation
												End Site
												{
													OFFSET 1.884041 -1.149155 1.337651
												}
											}
										}
									}
								}
								JOINT leftIndexProximal
								{
									OFFSET 9.109299 -0.518005 2.259900
									CHANNELS 6 Xposition Yposition Zposition Xrotation Yrotation Zrotation
									JOINT leftIndexIntermediate
									{
										OFFSET 3.699997 0.000000 0.000000
										CHANNELS 3 Xrotation Yrotation Zrotation
										JOINT leftIndexDistal
										{
											OFFSET 2.850006 0.000000 0.000000
											CHANNELS 3 Xrotation Yrotation Zrotation
											JOINT leftHandIndex4
											{
												OFFSET 2.774895 0.000000 0.000000
												CHANNELS 3 Xrotation Yrotation Zrotation
												End Site
												{
													OFFSET 2.774902 0.000000 -0.000072
												}
											}
										}
									}
								}
								JOINT leftMiddleProximal
								{
									OFFSET 9.533401 0.000000 0.000000
									CHANNELS 6 Xposition Yposition Zposition Xrotation Yrotation Zrotation
									JOINT leftMiddleIntermediate
									{
										OFFSET 3.699997 0.000000 0.000000
										CHANNELS 3 Xrotation Yrotation Zrotation
										JOINT leftMiddleDistal
										{
											OFFSET 2.949997 0.000000 0.000000
											CHANNELS 3 Xrotation Yrotation Zrotation
											JOINT leftHandMiddle4
											{
												OFFSET 2.952896 0.000000 0.000000
												CHANNELS 3 Xrotation Yrotation Zrotation
												End Site
												{
													OFFSET 2.952904 0.000000 0.000165
												}
											}
										}
									}
								}
								JOINT leftRingProximal
								{
									OFFSET 9.104500 -0.042999 -1.865101
									CHANNELS 6 Xposition Yposition Zposition Xrotation Yrotation Zrotation
									JOINT leftRingIntermediate
									{
										OFFSET 3.149994 0.000000 0.000000
										CHANNELS 3 Xrotation Yrotation Zrotation
										JOINT leftRingDistal
										{
											OFFSET 2.950005 0.000000 0.000000
											CHANNELS 3 Xrotation Yrotation Zrotation
											JOINT leftHandRing4
											{
												OFFSET 2.644302 0.000000 0.000000
												CHANNELS 3 Xrotation Yrotation Zrotation
												End Site
												{
													OFFSET 2.644302 0.000000 0.000083
												}
											}
										}
									}
								}
								JOINT leftLittleProximal
								{
									OFFSET 8.077805 -0.486893 -3.806302
									CHANNELS 6 Xposition Yposition Zposition Xrotation Yrotation Zrotation
									JOINT leftLittleIntermediate
									{
										OFFSET 3.600006 0.000000 0.000000
										CHANNELS 3 Xrotation Yrotation Zrotation
										JOINT leftLittleDistal
										{
											OFFSET 2.099998 0.000000 0.000000
											CHANNELS 3 Xrotation Yrotation Zrotation
											JOINT leftHandPinky4
											{
												OFFSET 2.125496 0.000000 0.000000
												CHANNELS 3 Xrotation Yrotation Zrotation
												End Site
												{
													OFFSET 2.125504 0.000000 -0.001254
												}
											}
										}
									}
								}
							}
						}
					}
				}
			}
		}
	}
	JOINT rightUpperLeg
	{
		OFFSET -8.207800 -6.751701 -1.599544
		CHANNELS 6 Xposition Yposition Zposition Xrotation Yrotation Zrotation
		JOINT rightLowerLeg
		{
			OFFSET 0.000004 -44.370152 0.345934
			CHANNELS 3 Xrotation Yrotation Zrotation
			JOINT rightFoot
			{
				OFFSET 0.000004 -44.423664 -3.043535
				CHANNELS 3 Xrotation Yrotation Zrotation
				JOINT rightToes
				{
					OFFSET 0.000001 -8.728691 10.710592
					CHANNELS 3 Xrotation Yrotation Zrotation
					JOINT rightToesEnd
					{
						OFFSET 0.000000 -0.000665 9.278101
						CHANNELS 3 Xrotation Yrotation Zrotation
						End Site
						{
							OFFSET 0.000000 -0.000665 9.278103
						}
					}
				}
			}
		}
	}
	JOINT leftUpperLeg
	{
		OFFSET 8.207800 -6.751701 -1.599544
		CHANNELS 6 Xposition Yposition Zposition Xrotation Yrotation Zrotation
		JOINT leftLowerLeg
		{
			OFFSET 0.000004 -44.370037 0.346940
			CHANNELS 3 Xrotation Yrotation Zrotation
			JOINT leftFoot
			{
				OFFSET 0.000004 -44.423611 -3.044388
				CHANNELS 3 Xrotation Yrotation Zrotation
				JOINT leftToes
				{
					OFFSET 0.000001 -8.728690 10.710592
					CHANNELS 3 Xrotation Yrotation Zrotation
					JOINT leftToesEnd
					{
						OFFSET 0.000000 -0.000680 9.278101
						CHANNELS 3 Xrotation Yrotation Zrotation
						End Site
						{
							OFFSET 0.000000 -0.000680 9.278101
						}
					}
				}
			}
		}
	}
}
MOTION
Frames: 4
Frame Time: 0.033333
2.795087 96.267967 -2.828297 -9.275475 13.181712 4.136886 0.000003 10.181570 0.131526 12.179852 -32.770449 -21.962641 2.002745 -4.317676 6.532022 2.414415 -4.138663 6.511129 -0.000003 16.740387 -2.049020 -2.590479 -5.102027 0.493470 -0.000002 9.617852 1.684973 2.111164 -26.130338 12.630862 0.000002 22.037354 7.501073 -0.000000 -0.000000 0.000000 -4.570000 11.014896 -2.160840 -1.668865 -8.605153 -10.084978 -20.199951 -15.369263 5.852527 -0.000044 54.879586 0.000084 21.707654 2.263280 -34.802638 -2.464778 -1.573994 2.681906 -4.831403 -17.369362 -11.252926 7.937412 -7.726306 -0.631171 -2.646277 -1.527788 1.527819 -0.876713 -10.325673 -3.396538 -1.994574 -1.151559 1.151569 -0.000001 -0.000004 -0.000004 -9.108296 -0.517888 2.259792 3.323443 10.667413 -18.851209 0.369866 -2.241665 18.735830 0.065184 -0.951880 7.835923 -0.000000 0.000002 0.000003 -9.532500 0.000009 -0.000013 0.196081 2.232589 -5.904044 0.460632 -2.493095 20.932966 -1.316424 -1.975443 13.350256 0.000000 -0.000000 0.000002 -9.103593 -0.043123 -1.865109 0.613478 -6.302883 5.560764 1.069276 -3.710005 32.145636 -2.567498 -3.318781 19.052971 -0.000001 -0.000000 -0.000000 -8.076688 -0.486732 -3.806307 5.018904 -15.424474 18.770726 2.259006 -5.133023 47.485142 0.421228 -2.387654 20.007695 0.000000 0.000001 0.000001 4.570401 11.014687 -2.160814 1.275054 -8.439479 -1.595504 -3.678721 -56.221736 -12.235378 0.000039 -104.820290 0.000048 62.318906 9.738990 14.256634 2.466110 -1.576208 2.681691 -0.876552 5.286225 11.340588 1.214280 6.825822 0.090958 2.647875 -1.528748 1.528769 -1.334374 0.780272 2.906821 1.998922 -1.154086 1.154070 -0.000004 0.000001 -0.000002 9.109313 -0.518014 2.259893 0.700147 -4.695420 9.454211 0.010345 0.378206 -3.135436 0.002679 -0.192539 1.595713 0.000002 -0.000002 0.000004 9.533418 -0.000002 -0.000007 -0.002925 -0.200356 4.045362 0.001109 0.123277 -1.021596 0.002392 -0.182126 1.509352 0.000001 -0.000003 0.000002 9.104513 -0.042995 -1.865102 0.057678 4.379763 -0.505322 0.000968 0.115293 -0.955403 0.004386 -0.245751 2.036830 -0.000001 -0.000004 -0.000005 8.077816 -0.486888 -3.806306 1.305491 13.891757 -4.727674 -0.018120 -4.056675 -0.491041 0.011132 -0.391850 3.248826 0.000004 -0.000004 -0.000001 -8.207800 -6.751698 -1.599541 -25.540673 14.817237 5.941323 44.588356 -4.639882 -1.537684 -18.635932 -6.167182 3.032740 -5.873196 0.000001 0.000001 -0.000000 -0.000002 -0.000000 8.207799 -6.751697 -1.599546 3.885105 6.270028 -4.321548 37.959439 3.229901 -8.057930 -25.034619 9.229535 6.622508 -14.087630 0.000005 0.000001 -0.000000 -0.000000 0.000000 
3.597297 95.872047 -3.754697 -9.008959 9.211897 2.274440 0.000008 10.181552 0.131526 12.870564 -32.080975 -20.602412 1.952885 -4.218078 6.749277 2.355332 -4.068432 6.732847 -0.000001 16.740349 -2.049021 -2.549498 -5.695684 0.002364 -0.000002 9.617833 1.684976 4.159150 -28.108498 14.711859 -0.000001 22.037369 7.501074 0.000000 0.000001 0.000000 -4.570001 11.014867 -2.160841 -1.206531 -6.662724 -9.427118 -20.329078 -7.949654 4.150617 -0.000038 52.955621 0.000078 23.047343 4.460951 -33.613618 -2.464789 -1.573983 2.681901 -5.150780 -17.173937 -11.222172 8.470574 -8.005928 -0.952320 -2.646265 -1.527813 1.527814 -0.373909 -11.051600 -3.284210 -1.994610 -1.151581 1.151575 -0.000001 -0.000003 0.000001 -9.108307 -0.517873 2.259799 3.548541 11.032577 -19.406343 0.385729 -2.287848 19.137111 0.067445 -0.968125 7.970508 -0.000001 0.000002 0.000002 -9.532499 0.000018 -0.000005 0.188301 2.322294 -5.295576 0.524028 -2.652737 22.345063 -1.345776 -2.065827 13.889483 0.000001 -0.000001 -0.000003 -9.103592 -0.043092 -1.865105 0.826014 -6.504833 7.472146 1.260618 -3.997683 34.991964 -2.763545 -3.569883 19.992392 0.000001 0.000000 0.000000 -8.076688 -0.486755 -3.806299 6.086569 -15.649977 22.552211 2.658410 -5.470950 51.805274 0.449794 -2.464592 20.682381 0.000001 0.000002 -0.000002 4.570400 11.014685 -2.160815 1.168041 -8.347180 -3.979433 -3.004655 -56.252079 -16.629904 0.000071 -97.693241 0.000056 61.857212 10.269180 17.239717 2.466112 -1.576220 2.681709 -1.155422 4.337665 11.590724 2.265755 8.681632 0.449279 2.647889 -1.528755 1.528749 -0.993755 1.246217 2.883587 1.998932 -1.154095 1.154073 0.000001 -0.000003 -0.000000 9.109311 -0.518034 2.259907 0.809527 -5.241940 9.647296 0.005358 0.272293 -2.256891 0.003536 -0.221002 1.831569 0.000001 0.000002 0.000000 9.533406 -0.000006 0.000009 0.014314 -0.450967 4.392441 0.000207 0.055312 -0.458303 0.003480 -0.218802 1.813298 -0.000002 -0.000001 -0.000002 9.104503 -0.043013 -1.865086 0.013132 4.380710 0.090070 0.000411 0.075750 -0.627587 0.005632 -0.278572 2.308966 -0.000002 -0.000002 -0.000005 8.077802 -0.486920 -3.806292 1.100197 14.158986 -3.730014 -0.018112 -4.056674 -0.491048 0.013078 -0.424919 3.523228 -0.000001 -0.000001 -0.000001 -8.207798 -6.751700 -1.599537 -24.992962 15.279955 6.776507 45.035501 -3.541467 -4.110848 -17.786530 -6.072055 6.160066 -5.446578 0.000010 -0.000003 -0.000000 0.000001 0.000000 8.207800 -6.751709 -1.599543 0.040061 10.694950 -1.624676 45.593941 -0.599612 -9.307133 -16.377395 8.582922 4.184566 -20.583246 -0.065435 2.545232 0.000000 0.000000 0.000000 
4.175908 95.519516 -4.817181 -8.964153 5.467475 -0.670202 -0.000001 10.181541 0.131522 13.955203 -30.585102 -18.021126 1.931830 -4.068652 7.026068 2.336309 -3.911438 7.016322 -0.000001 16.740360 -2.049023 -2.348173 -5.844364 -0.213189 0.000003 9.617865 1.684975 4.696689 -29.836916 14.160493 0.000001 22.037399 7.501071 -0.000000 0.000001 -0.000000 -4.570000 11.014882 -2.160842 -0.686963 -5.007846 -6.922859 -23.172865 -2.271178 1.940405 -0.000046 54.275207 0.000080 25.281677 5.497087 -33.223136 -2.464797 -1.573989 2.681908 -5.519006 -17.001874 -11.270400 8.978016 -8.273589 -1.248046 -2.646282 -1.527822 1.527828 0.086367 -11.743778 -3.182292 -1.994579 -1.151583 1.151575 0.000001 -0.000003 0.000001 -9.108299 -0.517868 2.259800 3.790267 11.401209 -20.002441 0.388481 -2.295823 19.206489 0.067676 -0.969682 7.983432 0.000002 0.000000 0.000003 -9.532499 0.000003 -0.000001 0.197691 2.491074 -5.082284 0.570158 -2.762175 23.321669 -1.353578 -2.122802 14.243913 0.000001 0.000001 0.000003 -9.103592 -0.043110 -1.865102 0.934884 -6.544149 8.526509 1.418407 -4.213561 37.195609 -2.908957 -3.768209 20.718049 -0.000000 0.000000 0.000001 -8.076714 -0.486728 -3.806306 6.696170 -15.697988 24.762072 3.008468 -5.727809 55.391902 0.473925 -2.527570 21.236574 0.000001 -0.000001 0.000002 4.570398 11.014683 -2.160818 1.178601 -8.450471 -3.969984 -3.673214 -55.265021 -19.693182 -0.001294 -89.548349 -0.001074 61.665495 12.189247 18.503790 2.466108 -1.576217 2.681693 -1.417751 3.296966 11.805360 3.410004 10.710987 0.834868 2.647882 -1.528739 1.528756 -0.641659 1.775232 2.860354 1.998920 -1.154095 1.154070 -0.000001 -0.000003 0.000002 9.109308 -0.518037 2.259892 0.936854 -5.834047 9.904988 0.002032 0.167688 -1.389630 0.004521 -0.249720 2.069765 -0.000003 -0.000000 0.000000 9.533409 -0.000011 -0.000004 0.037512 -0.736922 4.789063 0.000012 -0.010058 -0.000015 0.004746 -0.255857 2.120663 -0.000001 -0.000000 0.000004 9.104494 -0.043013 -1.865105 -0.035754 4.349662 0.733575 0.000091 0.035441 -0.293604 0.007041 -0.312100 2.586858 0.000003 -0.000001 -0.000001 8.077805 -0.486914 -3.806307 0.866929 14.389457 -2.670030 -0.018105 -4.056660 -0.491010 0.015258 -0.458930 3.805655 0.000000 0.000001 -0.000001 -8.207797 -6.751722 -1.599539 -25.995956 14.851478 9.060102 44.524859 -3.252131 -5.154372 -18.030135 -6.205723 7.347054 -4.902886 -0.000002 0.000002 0.000001 -0.000000 -0.000000 8.207798 -6.751702 -1.599545 -7.472533 13.353015 5.656156 55.315848 -2.884452 -9.864887 -9.342558 8.267048 -1.072872 -24.278317 -0.319466 5.631673 -0.000000 0.000003 -0.000000 
4.477767 95.435318 -5.926840 -9.147134 1.926813 -5.288839 -0.000001 10.181550 0.131525 15.642091 -28.499133 -14.289072 1.881480 -3.893350 7.451210 2.307850 -3.690555 7.454768 -0.000000 16.740356 -2.049023 -2.124405 -5.640815 -0.209925 0.000000 9.617863 1.684974 3.549938 -29.434864 11.626030 -0.000001 22.037354 7.501074 0.000000 0.000002 -0.000000 -4.569999 11.014875 -2.160841 -0.098119 -3.105324 -2.469271 -28.877831 3.670444 1.170541 -0.000040 57.202401 0.000092 28.871319 3.264395 -33.973194 -2.464782 -1.573995 2.681914 -5.926338 -16.894394 -11.403907 9.472010 -8.481772 -1.501467 -2.646285 -1.527837 1.527818 0.429255 -12.296353 -3.099025 -1.994594 -1.151581 1.151569 0.000001 -0.000005 0.000001 -9.108294 -0.517873 2.259808 4.074689 11.766579 -20.789397 0.377399 -2.263739 18.927556 0.067517 -0.968629 7.974744 -0.000000 -0.000001 0.000000 -9.532495 -0.000006 0.000001 0.225907 2.737132 -5.227282 0.593220 -2.815017 23.795737 -1.336071 -2.148730 14.440138 -0.000002 -0.000001 0.000000 -9.103586 -0.043108 -1.865103 0.957205 -6.429964 8.956319 1.527458 -4.353127 38.655514 -2.991245 -3.898010 21.202910 -0.000000 -0.000000 -0.000000 -8.076685 -0.486738 -3.806302 6.942320 -15.583406 25.888613 3.271906 -5.900024 57.992022 0.490749 -2.570390 21.614919 -0.000001 -0.000000 0.000002 4.570399 11.014683 -2.160817 1.237874 -8.793935 -3.292721 -4.892895 -52.490256 -22.638332 -0.000074 -80.894814 -0.000064 58.196866 13.503310 19.986950 2.466116 -1.576210 2.681697 -1.634012 2.251492 11.952547 4.568792 12.675903 1.220415 2.647894 -1.528782 1.528748 -0.332816 2.321628 2.833691 1.998928 -1.154093 1.154071 0.000001 0.000001 0.000001 9.109304 -0.518007 2.259898 1.071257 -6.409467 10.208579 0.000449 0.079073 -0.655292 0.005395 -0.273023 2.262978 -0.000001 -0.000002 -0.000001 9.533413 0.000012 -0.000004 0.065271 -1.030571 5.197451 0.000237 -0.055964 0.000062 0.005967 -0.287118 2.379828 0.000000 -0.000000 -0.000000 9.104511 -0.042992 -1.865103 -0.082877 4.284654 1.358097 0.000005 -0.000362 -0.000083 0.008422 -0.340882 2.825899 0.000002 -0.000002 -0.000001 8.077811 -0.486899 -3.806302 0.632653 14.549508 -1.662073 -0.018110 -4.056657 -0.491022 0.017281 -0.488454 4.050915 0.000003 -0.000000 0.000001 -8.207798 -6.751707 -1.599540 -27.897928 12.165123 13.111659 42.510671 -6.902538 -3.668273 -19.447032 -6.420509 5.405613 -5.326570 -0.000003 -0.000002 -0.000001 -0.000000 -0.000000 8.207796 -6.751692 -1.599542 -15.591891 11.367877 14.395814 62.989815 -6.327165 -9.896512 -7.608700 8.156836 -0.730383 -18.205490 -0.170961 4.114413 -0.000001 -0.000001 0.000001 
